<?xml version="1.0" encoding="iso-8859-1"?>
<!-- Generator: Adobe Illustrator 16.0.0, SVG Export Plug-In . SVG Version: 6.00 Build 0)  -->
<!DOCTYPE svg PUBLIC "-//W3C//DTD SVG 1.1//EN" "http://www.w3.org/Graphics/SVG/1.1/DTD/svg11.dtd">
<svg version="1.1" id="Capa_1" xmlns="http://www.w3.org/2000/svg" xmlns:xlink="http://www.w3.org/1999/xlink" x="0px" y="0px"
	 width="192.429px" height="192.428px" viewBox="0 0 192.429 192.428" style="enable-background:new 0 0 192.429 192.428;"
	 xml:space="preserve">
<g>
	<g>
		<path d="M174.658,102.117c-0.011-24.188,0.284-48.378,0.327-72.557c0.015-8.028,0.222-27.544-11.425-27.85
			c-0.47-0.824-1.352-1.425-2.661-1.43c-30.163-0.116-60.323,1.019-90.472,1.339C54.734,1.785,25.28-6.805,19.706,14.002
			c-2.184,8.153,0.184,17.253-0.042,25.553c-0.397,14.544-2.234,29.018-2.587,43.572c-0.751,30.978-0.275,62.737,3.255,93.537
			c0.116,1.018,0.686,1.734,1.412,2.134c4.063,13.987,27.459,12.928,39.696,12.256c24.153-1.328,48.529,0.765,72.702-0.074
			c0.033,0.004,0.056,0.02,0.09,0.021c1.058,0.059,2.114,0.108,3.171,0.167c2.892,0.456,5.798,0.759,8.688,1.23
			c0.588,0.097,1.092-0.051,1.481-0.33c6.914,0.035,19.812-7.835,22.027-11.242c5.926-9.111,6.063-22.219,6.058-32.594
			C175.65,132.867,174.666,117.497,174.658,102.117z M72.715,184.097c-13.121,0.959-40.367,6.31-47.069-8.741
			c-0.363-26.027-1.686-52.025-1.864-78.062c-0.157-23.012,3.715-46.195,2.167-69.129c-0.28-4.152-0.509-8.311,0.146-12.443
			c1.29-8.129,10.331-8.929,17.12-9.192c11.448-0.442,22.923,1.655,34.434,1.373c27.374-0.669,54.967,0.277,82.301-1.386
			c0.498,0.657,1.258,1.096,2.249,1.027c8.121-0.563,6.229,24.065,6.094,29.052c-0.468,17.12-0.082,34.264-0.189,51.395
			c-0.13,21.064,0.922,42.095,0.923,63.143c0,3.859-0.054,8.601-0.678,13.26c-1.981,7.079-4.957,13.1-11.64,17.196
			c-0.952,0.584-1.96,1.08-2.992,1.534C126.689,185.833,99.702,182.124,72.715,184.097z"/>
		<path d="M153.393,28.663c-0.713-8.954-7.7-10.483-15.744-10.494c-12.427-0.018-25.29,1.715-37.731,2.289
			c-19.37,0.893-38.681,2.642-58.053,0.834c-1.269-0.119-2.768,1.003-2.994,2.225c-2.243,12.103-4.391,24.995-0.154,36.849
			c0.46,1.287,2.069,1.595,3.028,0.985c3.851,0.815,8.42,0.298,12.219,0.308c9.732,0.026,19.362,0.383,29.074,0.98
			c21.611,1.328,43.227-1.548,64.854-0.31c1.766,0.101,3.12-1.486,3.171-3.095C151.388,48.996,154.214,38.962,153.393,28.663z
			 M86.401,56.604c-9.795-0.322-19.505-1.083-29.317-1.069c-4.559,0.006-10.098-0.691-14.78,0.193
			c-0.254-9.452,0.545-18.837,2.137-28.177c13.911,1.087,27.812,0.529,41.739-0.227c12.82-0.695,25.818-0.467,38.565-1.918
			c4.295-0.489,8.578-0.911,12.902-1.052c6.737-0.221,9.418,1.267,9.588,7.931c0.204,7.972-1.679,15.819-2.328,23.736
			C125.391,55.17,105.922,57.247,86.401,56.604z"/>
		<path d="M73.538,78.724c-0.227-0.936-1.187-2.017-2.212-2.158c-8.116-1.122-16.113-0.199-24.259-0.103
			c-1.54,0.018-2.496,0.959-3.046,2.263c-1.031,2.442-1.171,4.785-0.647,7.351c0.317,1.555,1.881,2.266,3.343,2.205
			c0.268,0.865,0.913,1.602,1.994,1.85C58.101,92.293,77.063,93.266,73.538,78.724z"/>
		<path d="M113.949,79.336c-0.198-0.974-1.245-2.057-2.271-2.217c-8.271-1.285-16.597-0.761-24.932-0.717
			c-1.746,0.009-3.233,1.422-3.22,3.142c0.015,2.034,0.081,3.978,0.767,5.913c0.1,0.282,0.241,0.521,0.387,0.754
			c-1.146,1.28-0.039,3.309,1.45,3.938c-0.021,0.016-0.041,0.031-0.062,0.047c5.541,1.744,12.938,1.247,18.599,0.441
			C110.92,89.748,115.249,85.701,113.949,79.336z"/>
		<path d="M152.435,78.672c-0.283-1.325-1.839-2.534-3.244-2.41c-7.808,0.686-15.564,1.823-23.417,1.923
			c-1.416,0.018-2.923,0.974-3.225,2.396c-0.236,1.112-0.406,1.966-0.329,3.089c0.109,1.586,1.117,2.568,2.312,2.942
			c-0.276,1.323,0.289,2.811,1.881,3.089c7.155,1.254,14.889,0.098,22.127,0.108c1.524,0.002,2.809-1.009,3.243-2.41
			C152.684,84.502,153.072,81.655,152.435,78.672z"/>
		<path d="M74.984,102.17c-0.269-1.395-1.817-2.383-3.199-2.377c-8.461,0.034-16.908,0.564-25.368,0.599
			c-1.571,0.007-2.736,1.011-3.235,2.403c-0.561,1.566-0.731,3.019-0.754,4.68c-0.025,1.867,1.543,3.137,3.339,3.258
			c0.236,0.016,0.484,0.012,0.721,0.026c0.277,0.488,0.705,0.897,1.284,1.109C56.074,114.918,77.624,115.843,74.984,102.17z"/>
		<path d="M74.981,127.563c-0.383-1.31-1.731-2.479-3.196-2.375c-8.107,0.576-16.242,0.134-24.292,1.408
			c-1.291,0.204-2.591,1.811-2.415,3.096c0.205,1.499,0.533,2.824,1.132,4.225c0.456,1.067,1.178,1.866,2.247,2.169
			c0.464,0.632,1.14,1.125,2.007,1.209c7.05,0.687,14.246,0.04,21.321,0.054c1.88,0.004,3.182-1.47,3.293-3.214
			C75.221,131.897,75.625,129.764,74.981,127.563z"/>
		<path d="M88.697,103.679c-1.683,0.185-3.334,1.299-3.239,3.161c0.057,1.118,0.172,2.133,0.366,3.232
			c0.114,0.646,0.607,1.253,1.2,1.679c0.269,0.261,0.587,0.484,1.014,0.602c7.349,2.01,15.081,0.874,22.557,2.01
			c2.202,0.335,3.958-0.847,4.14-3.078C115.813,98.061,96.237,102.851,88.697,103.679z"/>
		<path d="M149.724,102.824c-0.527-1.236-1.582-2.459-3.135-2.329c-6.711,0.562-13.453,0.073-20.164,0.635
			c-1.766,0.148-3.251,1.331-3.251,3.173c0,1.692,0,3.385,0,5.077c0,1.395,0.855,2.412,2.038,2.888
			c0.135,0.591,0.495,1.143,1.146,1.519C134.898,118.715,155.541,116.474,149.724,102.824z"/>
		<path d="M109.513,125.209c-5.707-0.003-11.414-0.005-17.121-0.009c-3.803-0.002-6.755,0.39-6.85,4.73
			c-0.013,0.587,0.134,1.087,0.374,1.51c-0.895,0.951-1.033,2.641,0.394,3.24c7.242,3.039,26.685,5.936,26.495-6.259
			C112.777,126.67,111.328,125.21,109.513,125.209z"/>
		<path d="M72.646,152.668c-5.667-1.249-28.01-3.396-26.636,6.539c0.059,0.431,0.27,0.809,0.544,1.146
			c0.075,0.977,0.646,1.914,1.786,2.207c7.886,2.032,16.295,1.818,24.296,0.616c1.4-0.212,2.335-1.746,2.353-3.016
			c0.02-1.48,0.034-2.962,0.035-4.443C75.026,154.361,74.042,152.976,72.646,152.668z"/>
		<path d="M109.513,151.866c-6.963-0.475-13.847,0.982-20.815,0.612c-1.334-0.071-2.995,1.029-3.201,2.379
			c-0.344,2.247,0.035,3.709,0.911,4.844c-0.249,1.264,0.49,2.7,2.291,2.859c6.675,0.588,13.466,0.634,20.165,0.802
			c1.457,0.036,2.777-1.004,3.162-2.35c0.569-1.984,0.763-3.873,0.785-5.93C112.83,153.237,111.289,151.987,109.513,151.866z"/>
		<path d="M146.589,127.087c-7.373-0.714-14.697-1.771-22.116-1.91c-1.9-0.036-3.212,1.508-3.326,3.245
			c-0.604,9.186-1.861,21.173,1.605,30.484c0.135,0.499,0.286,0.995,0.462,1.483c3.488,9.676,14.354,5.938,22.075,6.192
			c1.819,0.061,3.321-1.522,3.328-3.248c0.045-11.017,0.63-22.012,1.291-33.008C150.022,128.437,148.303,127.253,146.589,127.087z"
			/>
	</g>
</g>
<g>
</g>
<g>
</g>
<g>
</g>
<g>
</g>
<g>
</g>
<g>
</g>
<g>
</g>
<g>
</g>
<g>
</g>
<g>
</g>
<g>
</g>
<g>
</g>
<g>
</g>
<g>
</g>
<g>
</g>
</svg>
